<svg xmlns="http://www.w3.org/2000/svg" viewBox="0 0 85.56 26.31"><defs><style>.cls-1{fill:#030202;}</style></defs><g id="Layer_2" data-name="Layer 2"><g id="Layer_1-2" data-name="Layer 1"><path class="cls-1" d="M.07,9a.26.26,0,0,1,0-.35A2.18,2.18,0,0,0,.52,8V1.41C.52.68.21.54.21.54A.35.35,0,0,1,.12.3.28.28,0,0,1,.4,0H8a.87.87,0,0,1,.82.89V3.07a.27.27,0,0,1-.26.28c-.1,0-.17,0-.21-.09S8.27,3,7.75,2.93H4a.86.86,0,0,0-.82.89V6.37A.84.84,0,0,0,4,7.26H5.36a.85.85,0,0,1,.82.89v2.18a.26.26,0,0,1-.25.28.26.26,0,0,1-.21-.09s-.14-.33-.87-.33H4a.85.85,0,0,0-.82.87V14.6a.86.86,0,0,0,.82.89H7.71c.56-.05.68-.33.68-.33a.26.26,0,0,1,.21-.1.27.27,0,0,1,.26.28V17.5a.87.87,0,0,1-.82.89H.4a.27.27,0,0,1-.28-.28.44.44,0,0,1,.09-.24s.31-.14.31-.93V9.86C.52,9.53.07,9,.07,9Zm1.78,7.29a.47.47,0,0,0,.31.51s.11,0,.18,0a.22.22,0,0,0,.14,0h.57a.06.06,0,0,0,.07-.07.07.07,0,0,0-.07-.07H2.39a.5.5,0,0,1-.3-.09c-.1-.07-.1-.21-.1-.33V1.92a.44.44,0,0,1,.07-.3c.07-.1.21-.1.31-.1H7.64a.1.1,0,0,0,.09-.09.11.11,0,0,0-.09-.07H2.3a.45.45,0,0,0-.45.47ZM3.14,8.69a.07.07,0,0,0,.07.07H4.9S5,8.71,5,8.69A.08.08,0,0,0,4.9,8.6H3.21S3.14,8.64,3.14,8.69ZM4,16.77c0,.05,0,.07.07.07H7.73s.07,0,.07-.07a.06.06,0,0,0-.07-.07H4.1A.06.06,0,0,0,4,16.77Z"/><path class="cls-1" d="M11,10c0-.32-.44-.82-.44-.82a.24.24,0,0,1,0-.35s.44-.49.44-.75V1.59c0-.79-.3-.93-.3-.93a.35.35,0,0,1-.1-.24.29.29,0,0,1,.28-.28h3a.3.3,0,0,1,.28.28A.3.3,0,0,1,14,.66s-.3.14-.3.91V8.13a1.89,1.89,0,0,0,.46.77.32.32,0,0,1,0,.35,2.76,2.76,0,0,0-.46.71v4.59a1,1,0,0,0,1.17.94h2a.8.8,0,0,0,.87-.64.22.22,0,0,1,.24-.18.26.26,0,0,1,.25.28V17.5a.86.86,0,0,1-.82.89H10.87a.28.28,0,0,1-.26-.28.38.38,0,0,1,.1-.24s.3-.14.3-1V10Zm1.24,6.94s.05.07.1.07.07,0,.07-.07V1.52s-.05-.07-.07-.07-.1,0-.1.07V16.94Zm1.53,0a.07.07,0,0,0,.07.07h3.32a.07.07,0,0,0,.07-.07c0-.05,0-.1-.07-.1H13.85S13.78,16.89,13.78,16.94Z"/><path class="cls-1" d="M37,1V3a.29.29,0,0,1-.28.28.27.27,0,0,1-.21-.12S36.36,3,35.7,3H34.32a.87.87,0,0,0-.82.89V8.11s0,0,0,0A1.67,1.67,0,0,0,34,9a.26.26,0,0,1,0,.35s-.47.52-.47.77v7c0,.72.31.87.31.87a.26.26,0,0,1,.11.21.28.28,0,0,1-.28.3H30.69a.29.29,0,0,1-.28-.3A.37.37,0,0,1,30.5,18s.31-.15.31-1l0-7a1.89,1.89,0,0,0-.47-.78.35.35,0,0,1,0-.37,2.41,2.41,0,0,0,.47-.68V3.84A.86.86,0,0,0,30,3h-1.5c-.65,0-.77.21-.77.21a.26.26,0,0,1-.21.12A.28.28,0,0,1,27.27,3V1a.86.86,0,0,1,.82-.89h8.06A.87.87,0,0,1,37,1Zm-1.24.54s0-.07-.07-.07h-7a.07.07,0,0,0-.07.07c0,.05,0,.09.07.09h7A.08.08,0,0,0,35.73,1.57ZM32.21,3.33a.07.07,0,0,0-.07-.07.06.06,0,0,0-.07.07V16.94a.07.07,0,0,0,.07.07.08.08,0,0,0,.07-.07Z"/><path class="cls-1" d="M46.88,8.9a.26.26,0,0,1,0,.35,1.94,1.94,0,0,0-.45.73V15.7a2.59,2.59,0,0,1-2.5,2.69H40.48A2.59,2.59,0,0,1,38,15.7V10c0-.32-.45-.82-.45-.82a.26.26,0,0,1,0-.35A2.57,2.57,0,0,0,38,8.11V2.69A2.61,2.61,0,0,1,40.48,0h3.45a2.61,2.61,0,0,1,2.5,2.69V8.08C46.43,8.41,46.88,8.9,46.88,8.9Zm-6.35,8c0-.05,0-.1-.07-.1a1.11,1.11,0,0,1-1.08-1.14v-13a1.13,1.13,0,0,1,1.08-1.17h2.27c.05,0,.07-.05.07-.09a.07.07,0,0,0-.07-.07H40.46a1.3,1.3,0,0,0-1.2,1,1.71,1.71,0,0,0,0,.45V15.67a1.42,1.42,0,0,0,.63,1.17,1,1,0,0,0,.61.17A.07.07,0,0,0,40.53,16.94Zm1-1.45h1.43a.87.87,0,0,0,.82-.89V3.8a.87.87,0,0,0-.82-.9H41.49a.87.87,0,0,0-.82.9V14.6A.87.87,0,0,0,41.49,15.49ZM45.12,2.76A1.3,1.3,0,0,0,43.9,1.41a.08.08,0,0,0-.07.07s0,.09.07.09A1.14,1.14,0,0,1,45,2.74v13a1.13,1.13,0,0,1-1.08,1.14H41.49c-.05,0-.07.05-.07.1a.07.07,0,0,0,.07.07h2.09l.16,0a2.18,2.18,0,0,0,.42-.05,1.3,1.3,0,0,0,1-1.26v-13Z"/><path class="cls-1" d="M59.11,18.11a.28.28,0,0,1-.26.28h-2.2a1.27,1.27,0,0,1-1.13-.82L54,13.12a.74.74,0,0,0-1-.49h0v0a1.46,1.46,0,0,0-.78,1.24v3.05c0,.79.31.93.31.93a.31.31,0,0,1,.12.24.28.28,0,0,1-.29.28h-3a.27.27,0,0,1-.26-.28.43.43,0,0,1,.09-.24s.31-.14.31-.93l0-7a1.9,1.9,0,0,0-.47-.8.32.32,0,0,1,0-.35,2.61,2.61,0,0,0,.47-.7V1.29c0-.66-.3-.77-.3-.77A.31.31,0,0,1,49.08.3a.3.3,0,0,1,.28-.3h6.07a2.62,2.62,0,0,1,2.51,2.69V8.62a2.28,2.28,0,0,1-1.27,2.25A1.23,1.23,0,0,0,56.48,12l1.76,5.15c.31.73.77.77.77.77A.38.38,0,0,1,59.11,18.11Zm-4.1-8s.07,0,.12,0h0a6.35,6.35,0,0,0,.63-.33,2,2,0,0,0,.87-1.31,4.42,4.42,0,0,0,0-.89V3a1.8,1.8,0,0,0-.16-.89,1.27,1.27,0,0,0-1.1-.65H51.33a.62.62,0,0,0-.21,0,.49.49,0,0,0-.33.51V16.77a.12.12,0,0,0,.07.1s.07-.05.07-.1V1.87a.33.33,0,0,1,.21-.28.22.22,0,0,1,.12,0h4.17a1.15,1.15,0,0,1,1.1,1.17V7.85a3.77,3.77,0,0,1,0,.47,1.9,1.9,0,0,1-.26.72,2.2,2.2,0,0,1-1.08.8l-2.86,1.29s0,.07,0,.09,0,.07,0,.07h0ZM53,9.49l1.54-.73a1.46,1.46,0,0,0,.75-1.24V3.8a.86.86,0,0,0-.82-.9H53a.87.87,0,0,0-.82.9V9C52.17,9.44,52.52,9.68,53,9.49Zm3.82,7.26L55,11.55s0-.05-.07-.05,0,0-.07,0,0,0,0,.07l1.75,5.2s0,0,.07,0a.12.12,0,0,0,.08,0Z"/><path class="cls-1" d="M60.49,9.18a.32.32,0,0,1,0-.35A2.51,2.51,0,0,0,61,8.11V1.59c0-.79-.31-.93-.31-.93a.28.28,0,0,1-.09-.24.28.28,0,0,1,.26-.28h3a.29.29,0,0,1,.28.28A.4.4,0,0,1,64,.66s-.31.14-.31.93V8.08c0,.33.45.82.45.82a.26.26,0,0,1,0,.35,2.24,2.24,0,0,0-.45.73v6.93c0,.82.31,1,.31,1a.43.43,0,0,1,.09.24.29.29,0,0,1-.28.28h-3a.28.28,0,0,1-.26-.28.29.29,0,0,1,.09-.24s.31-.14.31-1V10C61,9.68,60.49,9.18,60.49,9.18Zm1.73,7.64a.07.07,0,0,0,.07.07c.05,0,.07,0,.07-.07V1.57c0-.05,0-.07-.07-.07a.07.07,0,0,0-.07.07Z"/><path class="cls-1" d="M75.58,1V3a.29.29,0,0,1-.28.28.27.27,0,0,1-.21-.12S75,3,74.31,3H72.93a.87.87,0,0,0-.82.89V8.11a0,0,0,0,1,0,0c0,.35.45.82.45.82a.26.26,0,0,1,0,.35s-.47.52-.47.77v7c0,.72.31.87.31.87a.26.26,0,0,1,.11.21.28.28,0,0,1-.28.3h-3a.29.29,0,0,1-.28-.3.31.31,0,0,1,.09-.21s.31-.15.31-1l0-7A1.89,1.89,0,0,0,69,9.25a.35.35,0,0,1,0-.37,2.41,2.41,0,0,0,.47-.68V3.84A.87.87,0,0,0,68.62,3h-1.5c-.66,0-.77.21-.77.21a.26.26,0,0,1-.21.12A.28.28,0,0,1,65.88,3V1A.86.86,0,0,1,66.7.14h8.06A.87.87,0,0,1,75.58,1Zm-1.24.54s0-.07-.07-.07H67.21s-.07.05-.07.07a.08.08,0,0,0,.07.09h7.06A.08.08,0,0,0,74.34,1.57ZM70.82,3.33a.07.07,0,0,0-.07-.07s-.07,0-.07.07V16.94a.06.06,0,0,0,.07.07.08.08,0,0,0,.07-.07Z"/><path class="cls-1" d="M85.49,8.9a.26.26,0,0,1,0,.35A1.94,1.94,0,0,0,85,10V15.7a2.59,2.59,0,0,1-2.5,2.69H79.09a2.59,2.59,0,0,1-2.5-2.69V10c0-.32-.45-.82-.45-.82a.26.26,0,0,1,0-.35,2.57,2.57,0,0,0,.45-.72V2.69A2.61,2.61,0,0,1,79.09,0h3.45A2.61,2.61,0,0,1,85,2.69V8.08C85,8.41,85.49,8.9,85.49,8.9Zm-6.35,8c0-.05,0-.1-.07-.1A1.11,1.11,0,0,1,78,15.7v-13a1.13,1.13,0,0,1,1.08-1.17h2.27s.07-.05.07-.09a.07.07,0,0,0-.07-.07H79.07a1.29,1.29,0,0,0-1.2,1,1.71,1.71,0,0,0,0,.45V15.67a1.4,1.4,0,0,0,.63,1.17,1,1,0,0,0,.61.17A.07.07,0,0,0,79.14,16.94Zm1-1.45h1.43a.87.87,0,0,0,.82-.89V3.8a.87.87,0,0,0-.82-.9H80.1a.86.86,0,0,0-.82.9V14.6A.86.86,0,0,0,80.1,15.49ZM83.73,2.76a1.3,1.3,0,0,0-1.22-1.35.08.08,0,0,0-.07.07s0,.09.07.09a1.14,1.14,0,0,1,1.08,1.17v13a1.13,1.13,0,0,1-1.08,1.14H80.1s-.07.05-.07.1a.07.07,0,0,0,.07.07h2.08l.17,0a2.18,2.18,0,0,0,.42-.05,1.3,1.3,0,0,0,1-1.26v-13Z"/><path class="cls-1" d="M17.54,21.86h.93a.63.63,0,0,1,.61.65v.67a.21.21,0,0,1-.2.22h-.46a.07.07,0,0,1-.07-.07.09.09,0,0,1,0-.06s0,0,.05-.2v-.29a.21.21,0,0,0-.2-.22h-.44a.21.21,0,0,0-.2.22v1h0c0,.08.11.2.11.2a.06.06,0,0,1,0,.08.63.63,0,0,0-.11.18v1.15a.2.2,0,0,0,.2.21h.44a.2.2,0,0,0,.2-.21v-.3c0-.17-.05-.19-.05-.19a.09.09,0,0,1,0-.06.07.07,0,0,1,.07-.07h.46a.21.21,0,0,1,.2.21v.68a.63.63,0,0,1-.61.65h-.93a.63.63,0,0,1-.6-.65V24.24c0-.08-.11-.19-.11-.19a.07.07,0,0,1,0-.09.51.51,0,0,0,.11-.18V22.51A.63.63,0,0,1,17.54,21.86Zm.62.31h-.63a.3.3,0,0,0-.28.21.44.44,0,0,0,0,.16V25.6a.34.34,0,0,0,.09.24.26.26,0,0,0,.21.09h0s0,0,0,0a.28.28,0,0,1-.27-.28V22.53a.36.36,0,0,1,.07-.22.22.22,0,0,1,.18-.1h.65a0,0,0,0,0,0,0A0,0,0,0,0,18.16,22.21Zm-.32,3.75h.66a.29.29,0,0,0,.25-.28.25.25,0,0,0,0-.08V25s0,0,0,0a0,0,0,0,0,0,0v.54a.58.58,0,0,1,0,.18.26.26,0,0,1-.26.18h-.58A0,0,0,0,0,17.84,25.92Zm.6-3.73s0,0,0,0a.27.27,0,0,1,.26.26v.63l0,0,0,0v-.53a.41.41,0,0,0,0-.16.3.3,0,0,0-.28-.24S18.44,22.18,18.44,22.19Z"/><path class="cls-1" d="M25.58,26.21a.07.07,0,0,1-.07.07h-.78a.07.07,0,0,1-.07-.07s0,0,0-.06a.2.2,0,0,0,.07-.15l-.12-.54a.17.17,0,0,0-.23-.13l-.47.22a.5.5,0,0,0-.22.29l0,.16a.2.2,0,0,0,.07.15.11.11,0,0,1,0,.06.07.07,0,0,1-.06.07h-.78a.07.07,0,0,1-.07-.07.07.07,0,0,1,0-.06A.28.28,0,0,0,23,26l.34-1.76a.36.36,0,0,0,0-.16l0,0a.14.14,0,0,1,0-.09l.07-.06a.46.46,0,0,0,.11-.18l.3-1.58h0c0-.07-.06-.15-.06-.15a.06.06,0,0,1,0-.06.07.07,0,0,1,.07-.06h.86a.06.06,0,0,1,.06.06.08.08,0,0,1,0,.06s-.09.08-.06.15l.34,1.56a.39.39,0,0,0,.11.21l.07.06a.14.14,0,0,1,0,.09l0,0a.26.26,0,0,0,0,.18L25.42,26a.28.28,0,0,0,.13.15A.07.07,0,0,1,25.58,26.21Zm-.45-.33-.83-3.46c0-.05-.05-.13-.13-.13h0c-.07,0-.11.07-.12.13l-.71,3.46h0l.7-3.46c0-.05,0-.1.09-.1h0c.06,0,.08.08.09.11l.84,3.46h0S25.14,25.89,25.13,25.88Zm-.63-1s0,0,0,0h0l-.66.29a0,0,0,0,0,0,0s0,0,0,0h0l.66-.29A0,0,0,0,0,24.5,24.87Zm-.39-.16.07,0,.08,0a.28.28,0,0,0,.14-.29L24.32,24l-.05-.18s0-.09-.07-.09-.09.11-.09.11l-.14.71v0C23.94,24.7,24,24.75,24.11,24.71Z"/><path class="cls-1" d="M31.39,26.21a.07.07,0,0,1-.06.07h-.54a.3.3,0,0,1-.27-.2L30.15,25a.18.18,0,0,0-.25-.12h0a.37.37,0,0,0-.19.3v.74c0,.19.08.22.08.22a.14.14,0,0,1,0,.06s0,.07-.06.07H29a.07.07,0,0,1-.07-.07.09.09,0,0,1,0-.06s.07,0,.07-.22V24.24a.61.61,0,0,0-.12-.19A.06.06,0,0,1,29,24a.76.76,0,0,0,.12-.17V22.14C29.05,22,29,22,29,22a.05.05,0,0,1,0-.05.08.08,0,0,1,.07-.07H30.5a.63.63,0,0,1,.61.65v1.44a.55.55,0,0,1-.31.54.31.31,0,0,0-.05.26L31.18,26c.07.17.19.18.19.18A.14.14,0,0,1,31.39,26.21Zm-1-1.94h0l.15-.08a.44.44,0,0,0,.21-.32.49.49,0,0,0,0-.21h0v-1.1a.46.46,0,0,0,0-.21.3.3,0,0,0-.27-.16h-1a.13.13,0,0,0-.08.13v3.61s0,0,0,0V22.28a.08.08,0,0,1,.05-.07h1a.28.28,0,0,1,.27.28v1.24a.41.41,0,0,1,0,.11.64.64,0,0,1-.06.18.53.53,0,0,1-.26.19l-.69.31,0,0s0,0,0,0h0Zm-.5-.15.37-.17a.36.36,0,0,0,.18-.3v-.9a.21.21,0,0,0-.19-.22h-.35a.21.21,0,0,0-.2.22V24C29.71,24.11,29.8,24.17,29.9,24.12Zm.92,1.76-.42-1.26h0v0l.43,1.25s0,0,0,0a0,0,0,0,0,0,0Z"/><path class="cls-1" d="M37.34,24a.07.07,0,0,1,0,.09.55.55,0,0,0-.11.17v1.68c0,.2.07.23.07.23a.09.09,0,0,1,0,.06.07.07,0,0,1-.07.07h-.51a.31.31,0,0,1-.27-.2l-.66-1.85s0-.12-.11-.12-.06.05-.06.09v1.72c0,.2.07.23.07.23a.14.14,0,0,1,0,.06s0,.07-.06.07H35a.08.08,0,0,1-.07-.07s0,0,0-.06.08,0,.08-.22V24.25c0-.08-.12-.2-.12-.2a.11.11,0,0,1,0-.08.9.9,0,0,0,.12-.18V22.21c0-.19-.08-.22-.08-.22a.11.11,0,0,1,0-.06.08.08,0,0,1,.07-.07h.52a.31.31,0,0,1,.27.2l.65,1.84s.05.11.11.11.07-.07.07-.11V22.21c0-.19-.08-.22-.08-.22a.11.11,0,0,1,0-.06s0-.07.06-.07h.72a.08.08,0,0,1,.07.07.07.07,0,0,1,0,.06s-.07,0-.07.22h0v1.56C37.23,23.86,37.34,24,37.34,24Zm-1.27,0-.63-1.62h0a.1.1,0,0,0-.07-.07h0s-.06,0-.06.08h0v3.55l0,0,0,0V22.34h0s0,0,0,0,0,0,0,0h0L36,24s0,0,0,0a0,0,0,0,0,0,0Zm.84-1.68,0,0,0,0v3.56h0a0,0,0,0,1,0,0s0,0,0,0h0l-.63-1.59h0v0l.63,1.57s0,.07.06.07h0a.08.08,0,0,0,.07-.07h0Z"/><path class="cls-1" d="M41,24.05A.06.06,0,0,1,41,24a.63.63,0,0,0,.11-.18V22.22h0c0-.19-.07-.22-.07-.22a.07.07,0,0,1,0-.06.08.08,0,0,1,.07-.07h.71a.08.08,0,0,1,.07.07.11.11,0,0,1,0,.06s-.08,0-.08.22h0v1.56h0c0,.08.11.2.11.2a.07.07,0,0,1,0,.09.55.55,0,0,0-.11.17v1.68c0,.2.08.23.08.23a.14.14,0,0,1,0,.06.07.07,0,0,1-.07.07h-.71a.07.07,0,0,1-.07-.07.09.09,0,0,1,0-.06s.07,0,.07-.23V24.26h0C41.12,24.17,41,24.05,41,24.05Zm.42,1.85a0,0,0,0,0,0,0,0,0,0,0,0,0,0V22.21a0,0,0,0,0,0,0,0,0,0,0,0,0,0Z"/><path class="cls-1" d="M46.32,21.86h.93a.63.63,0,0,1,.61.65v.67a.21.21,0,0,1-.2.22h-.47a.07.07,0,0,1-.06-.07.14.14,0,0,1,0-.06s.05,0,.05-.2v-.29a.21.21,0,0,0-.19-.22h-.45a.21.21,0,0,0-.19.22v1h0c0,.08.11.2.11.2a.06.06,0,0,1,0,.08.63.63,0,0,0-.11.18v1.15a.2.2,0,0,0,.19.21H47a.2.2,0,0,0,.19-.21v-.3c0-.17-.05-.19-.05-.19a.14.14,0,0,1,0-.06.07.07,0,0,1,.06-.07h.47a.21.21,0,0,1,.2.21v.68a.64.64,0,0,1-.61.65h-.93a.64.64,0,0,1-.61-.65V24.24a.4.4,0,0,0-.1-.19.06.06,0,0,1,0-.09s.1-.11.1-.18V22.51A.63.63,0,0,1,46.32,21.86Zm.62.31H46.3a.29.29,0,0,0-.27.21.44.44,0,0,0,0,.16V25.6a.38.38,0,0,0,.08.24.27.27,0,0,0,.21.09h0a0,0,0,0,0,0,0,.28.28,0,0,1-.26-.28V22.53a.44.44,0,0,1,.06-.22.26.26,0,0,1,.19-.1h.65a0,0,0,0,0,0,0A0,0,0,0,0,46.94,22.21Zm-.32,3.75h.65a.29.29,0,0,0,.26-.28V25a0,0,0,0,0,0,0s0,0,0,0v.54a.37.37,0,0,1,0,.18.27.27,0,0,1-.26.18h-.58A0,0,0,0,0,46.62,25.92Zm.6-3.73s0,0,0,0a.26.26,0,0,1,.26.26.24.24,0,0,1,0,.12v.51l0,0v-.55a.81.81,0,0,0,0-.16.3.3,0,0,0-.29-.24S47.22,22.18,47.22,22.19Z"/><path class="cls-1" d="M51.69,24a.07.07,0,0,1,0-.09.55.55,0,0,0,.11-.17V22.17c0-.18-.08-.21-.08-.21a.11.11,0,0,1,0-.06.08.08,0,0,1,.07-.07h1.85a.21.21,0,0,1,.2.22v.52a.07.07,0,0,1-.07.07l0,0a.17.17,0,0,0-.15-.08h-.9a.2.2,0,0,0-.2.21v.62a.21.21,0,0,0,.2.22H53a.2.2,0,0,1,.2.21v.53a.07.07,0,0,1-.06.07.05.05,0,0,1,0,0s0-.07-.21-.07h-.2a.2.2,0,0,0-.2.2v.86a.21.21,0,0,0,.2.22h.89c.13,0,.16-.08.16-.08a.09.09,0,0,1,0,0,.07.07,0,0,1,.07.07v.52a.21.21,0,0,1-.2.22H51.77a.07.07,0,0,1-.07-.07.14.14,0,0,1,0-.06s.08,0,.08-.22V24.22C51.8,24.14,51.69,24,51.69,24Zm.43,1.76a.13.13,0,0,0,.07.13h.22a0,0,0,0,0,0,0,0,0,0,0,0,0,0h-.16a.1.1,0,0,1-.07,0,.11.11,0,0,1,0-.08h0V22.3h0a.17.17,0,0,1,0-.07.11.11,0,0,1,.08,0h1.27s0,0,0,0H52.23a.11.11,0,0,0-.11.11Zm.31-1.85a0,0,0,0,0,0,0h.41a0,0,0,0,0,0,0l0,0h-.41A0,0,0,0,0,52.43,23.93Zm.22,2s0,0,0,0h.87s0,0,0,0,0,0,0,0h-.87S52.65,25.88,52.65,25.89Z"/><path class="cls-1" d="M59.76,26.21a.07.07,0,0,1-.06.07h-.54a.3.3,0,0,1-.27-.2L58.52,25a.18.18,0,0,0-.25-.12h0a.37.37,0,0,0-.19.3v.74c0,.19.07.22.07.22a.09.09,0,0,1,0,.06.07.07,0,0,1-.06.07h-.73a.07.07,0,0,1-.06-.07.09.09,0,0,1,0-.06s.07,0,.07-.22V24.24a.49.49,0,0,0-.11-.19.06.06,0,0,1,0-.08.55.55,0,0,0,.11-.17V22.14c0-.16-.07-.19-.07-.19a.05.05,0,0,1,0-.05.08.08,0,0,1,.07-.07h1.47a.63.63,0,0,1,.61.65v1.44a.55.55,0,0,1-.31.54.31.31,0,0,0-.05.26L59.55,26c.07.17.19.18.19.18A.14.14,0,0,1,59.76,26.21Zm-1-1.94h0l.15-.08a.44.44,0,0,0,.21-.32.49.49,0,0,0,0-.21h0v-1.1a.46.46,0,0,0,0-.21.3.3,0,0,0-.27-.16h-1a.13.13,0,0,0-.08.13v3.61a0,0,0,0,0,0,0V22.28a.08.08,0,0,1,0-.07h1a.28.28,0,0,1,.27.28v1.24a.41.41,0,0,1,0,.11.64.64,0,0,1-.06.18.53.53,0,0,1-.26.19l-.69.31,0,0s0,0,0,0h0Zm-.5-.15.37-.17a.36.36,0,0,0,.18-.3v-.9a.21.21,0,0,0-.19-.22h-.35a.21.21,0,0,0-.2.22V24C58.08,24.11,58.17,24.17,58.27,24.12Zm.92,1.76-.42-1.26h0v0l.43,1.25s0,0,0,0a0,0,0,0,0,0,0Z"/><path class="cls-1" d="M63.27,24.05a.06.06,0,0,1,0-.08.63.63,0,0,0,.11-.18V22.22h0c0-.19-.07-.22-.07-.22s0,0,0-.06a.07.07,0,0,1,.06-.07h.71a.08.08,0,0,1,.07.07.11.11,0,0,1,0,.06s-.08,0-.08.22h0v1.56h0c0,.08.11.2.11.2a.06.06,0,0,1,0,.09.82.82,0,0,0-.11.17v1.68c0,.2.08.23.08.23a.14.14,0,0,1,0,.06.07.07,0,0,1-.07.07h-.71s-.06,0-.06-.07a.07.07,0,0,1,0-.06s.07,0,.07-.23V24.26h0C63.38,24.17,63.27,24.05,63.27,24.05Zm1-3.43-.42.58a.16.16,0,0,1-.24,0l-.17-.13a.16.16,0,0,1,0-.23l.42-.59a.17.17,0,0,1,.24,0h0l.15.11A.17.17,0,0,1,64.26,20.62ZM64,20.46s0,0,0,0l-.4.56s0,0,0,0,0,0,0,0l.4-.56Zm-.34,5.44a0,0,0,0,0,0,0s0,0,0,0V22.21s0,0,0,0a0,0,0,0,0,0,0Z"/><path class="cls-1" d="M70.56,26.21a.07.07,0,0,1-.07.07h-.78a.07.07,0,0,1-.07-.07.07.07,0,0,1,0-.06.17.17,0,0,0,.06-.15l-.12-.54a.16.16,0,0,0-.22-.13l-.47.22a.46.46,0,0,0-.22.29l0,.16a.2.2,0,0,0,.07.15.11.11,0,0,1,0,.06.07.07,0,0,1-.06.07h-.79a.07.07,0,0,1-.06-.07.11.11,0,0,1,0-.06A.24.24,0,0,0,68,26l.34-1.76a.25.25,0,0,0,0-.16l0,0a.07.07,0,0,1,0-.09l.07-.06a.46.46,0,0,0,.11-.18l.3-1.58h0c0-.07-.06-.15-.06-.15a.06.06,0,0,1,0-.06.07.07,0,0,1,.07-.06h.86a.06.06,0,0,1,.06.06.08.08,0,0,1,0,.06s-.09.08-.07.15l.34,1.56a.45.45,0,0,0,.12.21l.07.06a.14.14,0,0,1,0,.09l0,0a.26.26,0,0,0,0,.18L70.4,26a.28.28,0,0,0,.13.15S70.56,26.18,70.56,26.21Zm-.45-.33-.84-3.46c0-.05,0-.13-.12-.13h0c-.06,0-.1.07-.11.13l-.71,3.46h0l.7-3.46a.09.09,0,0,1,.09-.1h0c.06,0,.08.08.08.11l.84,3.46h0Zm-.63-1s0,0,0,0h0l-.66.29a0,0,0,0,0,0,0s0,0,0,0h0l.66-.29A0,0,0,0,0,69.48,24.87Zm-.39-.16.07,0,.07,0a.28.28,0,0,0,.15-.29L69.3,24l0-.18s0-.09-.07-.09-.09.11-.09.11l-.14.71v0C68.92,24.7,69,24.75,69.09,24.71Z"/></g></g></svg>